<?xml version="1.0" encoding="utf-8"?>
<!-- Generator: Adobe Illustrator 23.1.0, SVG Export Plug-In . SVG Version: 6.00 Build 0)  -->
<svg version="1.1" id="Layer_1" xmlns="http://www.w3.org/2000/svg" xmlns:xlink="http://www.w3.org/1999/xlink" x="0px" y="0px"
	 viewBox="0 0 64 64" style="enable-background:new 0 0 64 64;" xml:space="preserve">
<style type="text/css">
	.st0{fill:#FFFFFF;}
	.st1{fill:#336666;}
	.st2{fill:none;}
</style>
<title></title>
<path class="st0" d="M58.5,27.3h-3.6c-1.9,0-3.5-1.5-3.5-3.5c0-1,0.4-1.9,1.1-2.5l2.5-2.5c1.4-1.4,1.4-3.6,0.1-4.9c0,0,0,0-0.1-0.1
	l-3.5-3.5c-1.4-1.4-3.6-1.4-4.9-0.1c0,0,0,0-0.1,0.1L44,12.8c-1.4,1.4-3.6,1.4-4.9,0.1c-0.7-0.7-1.1-1.6-1.1-2.5V6.8
	c0-1.9-1.6-3.5-3.5-3.5h-5c-1.9,0-3.5,1.6-3.5,3.5v3.6c0,1.9-1.5,3.5-3.5,3.5c-1,0-1.9-0.4-2.5-1.1l-2.5-2.5
	c-1.4-1.4-3.6-1.4-4.9-0.1c0,0,0,0-0.1,0.1L9,13.8c-1.4,1.4-1.4,3.6-0.1,4.9c0,0,0,0,0.1,0.1l2.5,2.5c1.4,1.4,1.4,3.6,0.1,4.9
	c-0.7,0.7-1.6,1.1-2.5,1.1H5.5c-1.9,0-3.5,1.6-3.5,3.5v5c0,1.9,1.6,3.5,3.5,3.5H9c1.9,0,3.5,1.5,3.5,3.5c0,1-0.4,1.9-1.1,2.5L9,47.8
	c-1.4,1.4-1.4,3.6-0.1,4.9c0,0,0,0,0.1,0.1l3.6,3.5c1.4,1.4,3.6,1.4,4.9,0.1c0,0,0,0,0.1-0.1l2.5-2.5c1.4-1.4,3.6-1.4,4.9-0.1
	c0.7,0.7,1.1,1.6,1.1,2.5v3.6c0,1.9,1.6,3.5,3.5,3.5l0,0h5c1.9,0,3.5-1.6,3.5-3.5l0,0v-3.6c0-1.9,1.5-3.5,3.5-3.5
	c1,0,1.9,0.4,2.5,1.1l2.5,2.5c1.4,1.4,3.6,1.4,4.9,0.1c0,0,0,0,0.1-0.1l3.5-3.5c1.4-1.4,1.4-3.6,0.1-4.9c0,0,0,0-0.1-0.1l-2.5-2.5
	c-1.4-1.4-1.4-3.6-0.1-4.9c0.7-0.7,1.6-1.1,2.5-1.1h3.6c1.9,0,3.5-1.6,3.5-3.5v-5C62,28.9,60.4,27.3,58.5,27.3z"/>
<g>
	<path class="st1" d="M48.2,46.3h-7l-2.8-7.2H25.8l-2.6,7.2h-6.8l12.3-31.7h6.8L48.2,46.3z M36.4,33.7L32.1,22l-4.3,11.7H36.4z"/>
</g>
<rect x="234.6" y="-47.6" class="st2" width="1.3" height="2.3"/>
</svg>
