<?xml version="1.0" encoding="utf-8"?>
<!-- Generator: Adobe Illustrator 24.2.0, SVG Export Plug-In . SVG Version: 6.00 Build 0)  -->
<svg version="1.1" id="Layer_1" xmlns="http://www.w3.org/2000/svg" xmlns:xlink="http://www.w3.org/1999/xlink" x="0px" y="0px"
	 viewBox="0 0 24 24" style="enable-background:new 0 0 24 24;" xml:space="preserve">
<style type="text/css">
	.st0{fill:none;}
	.st1{fill:none;stroke:#999999;stroke-miterlimit:10;}
</style>
<g>
	<path class="st0" d="M0,0h24v24H0V0z"/>
	<path class="st1" d="M19.1,13.5c0-0.3,0.1-0.6,0.1-0.9c0-0.3,0-0.6-0.1-0.9l2-1.6c0.2-0.1,0.2-0.4,0.1-0.6l-1.9-3.3
		C19.2,6,18.9,5.9,18.7,6l-2.4,1c-0.5-0.4-1-0.7-1.6-0.9l-0.4-2.5c0-0.2-0.2-0.4-0.5-0.4H10c-0.2,0-0.4,0.2-0.5,0.4L9.3,5.9
		C8.7,6.1,8.1,6.4,7.6,6.8l-2.4-1C5,5.8,4.8,5.9,4.6,6.1L2.7,9.4c-0.1,0.2,0,0.5,0.2,0.6l2,1.6c0,0.3-0.1,0.6-0.1,0.9s0,0.6,0.1,0.9
		l-2,1.6c-0.2,0.1-0.2,0.4-0.1,0.6L4.6,19c0.1,0.2,0.4,0.3,0.6,0.2l2.4-1c0.5,0.4,1,0.7,1.6,0.9l0.4,2.5c0.1,0.2,0.2,0.4,0.5,0.4
		h3.8c0.2,0,0.4-0.2,0.5-0.4l0.4-2.5c0.6-0.2,1.1-0.6,1.6-0.9l2.4,1c0.2,0.1,0.5,0,0.6-0.2l1.9-3.3c0.1-0.2,0.1-0.5-0.1-0.6
		L19.1,13.5z M12,17c-2.5,0-4.5-2-4.5-4.5S9.5,8,12,8s4.5,2,4.5,4.5S14.5,17,12,17z"/>
</g>
</svg>
